<svg width="12" height="8" viewBox="0 0 12 8" fill="none" xmlns="http://www.w3.org/2000/svg">
<path fill-rule="evenodd" clip-rule="evenodd" d="M11.8046 0.195344C11.9296 0.320362 11.9998 0.489901 11.9998 0.666677C11.9998 0.843453 11.9296 1.01299 11.8046 1.13801L5.13797 7.80468C5.01295 7.92966 4.84342 7.99987 4.66664 7.99987C4.48986 7.99987 4.32032 7.92966 4.19531 7.80468L0.861973 4.47134C0.798299 4.40985 0.747511 4.33628 0.712572 4.25495C0.677633 4.17361 0.659242 4.08613 0.658472 3.99761C0.657703 3.90909 0.674571 3.82131 0.708091 3.73937C0.741612 3.65744 0.791114 3.58301 0.853709 3.52041C0.916304 3.45782 0.990739 3.40832 1.07267 3.3748C1.1546 3.34128 1.24239 3.32441 1.33091 3.32518C1.41943 3.32595 1.50691 3.34434 1.58824 3.37928C1.66958 3.41422 1.74314 3.465 1.80464 3.52868L4.66664 6.39068L10.862 0.195344C10.987 0.0703629 11.1565 0.000152588 11.3333 0.000152588C11.5101 0.000152588 11.6796 0.0703629 11.8046 0.195344Z" fill="white"/>
</svg>
