<svg width="859" height="69" viewBox="0 0 859 69" fill="none" xmlns="http://www.w3.org/2000/svg">
<path d="M1 34.5H859" stroke="#514F4D" stroke-width="1.5" stroke-linecap="round" stroke-linejoin="round" stroke-dasharray="2 8"/>
<g clip-path="url(#clip0_4001_1212)">
<path d="M41.9871 45.0641C41.9057 45.3324 41.7294 45.5612 41.4919 45.7065C41.2543 45.8519 40.9721 45.9037 40.6992 45.8521C40.4337 45.7698 40.2074 45.5916 40.0636 45.3515C39.9198 45.1113 39.8686 44.8261 39.9196 44.5501L41.2075 39.2967V28.3331C41.2231 28.1559 41.1822 27.9782 41.0907 27.8261C40.9992 27.6741 40.862 27.5556 40.6992 27.488C40.5626 27.4334 40.4167 27.4063 40.2699 27.4081C40.1266 27.406 39.9844 27.4332 39.8519 27.488C39.6945 27.5513 39.5603 27.6619 39.4673 27.8049C39.3743 27.9479 39.3272 28.1164 39.3322 28.2875V29.5094C39.3322 29.7957 39.2197 30.0702 39.0195 30.2726C38.8193 30.475 38.5477 30.5887 38.2646 30.5887C37.9814 30.5887 37.7099 30.475 37.5096 30.2726C37.3094 30.0702 37.197 29.7957 37.197 29.5094V26.7114C37.2099 26.5331 37.1666 26.3552 37.0732 26.2034C36.9798 26.0515 36.8412 25.9335 36.6773 25.8663C36.5407 25.8117 36.3949 25.7846 36.248 25.7864C36.1049 25.786 35.963 25.8132 35.83 25.8663C35.6738 25.93 35.541 26.0411 35.45 26.1843C35.3589 26.3275 35.314 26.4957 35.3216 26.6658V29.5323C35.3052 29.8135 35.1865 30.0787 34.9884 30.2769C34.7903 30.4751 34.5267 30.5922 34.2483 30.6058C34.1084 30.6073 33.9697 30.5806 33.8401 30.5272C33.7106 30.4738 33.5929 30.3948 33.494 30.2948C33.3951 30.1948 33.317 30.0758 33.2641 29.9449C33.2113 29.814 33.1848 29.6737 33.1864 29.5323V26.3003C33.1965 26.1181 33.151 25.9371 33.056 25.7819C32.961 25.6266 32.8212 25.5046 32.6554 25.4324C32.387 25.3243 32.0878 25.3243 31.8194 25.4324C31.659 25.4958 31.522 25.6077 31.427 25.7528C31.3319 25.898 31.2835 26.0692 31.2884 26.2432V29.5323C31.3037 29.6818 31.2878 29.8329 31.2417 29.9758C31.1956 30.1187 31.1203 30.2502 31.0207 30.3618C30.9212 30.4734 30.7995 30.5627 30.6636 30.6237C30.5278 30.6848 30.3808 30.7164 30.2321 30.7164C30.0834 30.7164 29.9364 30.6848 29.8005 30.6237C29.6647 30.5627 29.543 30.4734 29.4434 30.3618C29.3439 30.2502 29.2686 30.1187 29.2225 29.9758C29.1764 29.8329 29.1605 29.6818 29.1758 29.5323V26.5744C29.179 26.4008 29.13 26.2302 29.0351 26.0854C28.9403 25.9406 28.8042 25.8284 28.6448 25.7636C28.5117 25.7104 28.3699 25.6833 28.2268 25.6836C28.0801 25.6842 27.9347 25.7113 27.7975 25.7636C27.6336 25.8307 27.4949 25.9487 27.4016 26.1006C27.3082 26.2524 27.2648 26.4303 27.2778 26.6087V36.3503C27.2778 36.635 27.1659 36.908 26.9668 37.1094C26.7676 37.3107 26.4975 37.4238 26.2158 37.4238C25.9342 37.4238 25.6641 37.3107 25.4649 37.1094C25.2658 36.908 25.1539 36.635 25.1539 36.3503V31.6222C25.158 31.4499 25.1106 31.2803 25.0179 31.1357C24.9252 30.991 24.7915 30.878 24.6342 30.8114C24.4976 30.7568 24.3518 30.7296 24.2049 30.7314C24.0618 30.7311 23.92 30.7582 23.7869 30.8114C23.623 30.8786 23.4843 30.9966 23.391 31.1484C23.2976 31.3003 23.2543 31.4782 23.2672 31.6565V37.0583C23.2672 39.1711 23.3463 39.2739 24.397 40.6786L24.702 41.0897L27.018 44.1504C27.165 44.3761 27.2225 44.6495 27.1789 44.9161C27.1353 45.1827 26.9938 45.4229 26.7827 45.5887C26.5716 45.7545 26.3065 45.8337 26.0401 45.8105C25.7738 45.7874 25.5259 45.6636 25.3459 45.4638L23.0187 42.4031L22.7136 42.0034C21.2111 40.0276 21.0981 39.8906 21.0981 37.0583V31.6565C21.0704 31.029 21.2432 30.4091 21.5912 29.8887C21.9391 29.3683 22.4436 28.975 23.03 28.7671C23.4191 28.6138 23.8324 28.5326 24.2501 28.5273C24.5721 28.5264 24.8924 28.5765 25.1991 28.6758V26.6087C25.1726 25.9993 25.3377 25.3971 25.6705 24.8884C26.0033 24.3796 26.4868 23.9904 27.0519 23.7764C27.4328 23.6074 27.8447 23.5218 28.2607 23.5251C28.6802 23.5222 29.0958 23.6078 29.4808 23.7764C29.6851 23.854 29.8787 23.9576 30.057 24.0847C30.344 23.8137 30.6769 23.5971 31.0398 23.4452C31.4298 23.296 31.843 23.2187 32.26 23.2168C32.6733 23.2178 33.083 23.2952 33.4688 23.4452C33.8653 23.5968 34.224 23.8346 34.5195 24.1419C34.6849 24.0322 34.8633 23.9439 35.0504 23.8792C35.4339 23.7117 35.8472 23.6253 36.2649 23.6253C36.6826 23.6253 37.0959 23.7117 37.4794 23.8792C37.8459 24.0194 38.1797 24.2349 38.4597 24.512C38.7397 24.7892 38.9598 25.122 39.1062 25.4895C39.4658 25.3441 39.8487 25.2666 40.236 25.2611C40.6543 25.2595 41.0688 25.341 41.4561 25.5009C42.02 25.7199 42.502 26.1119 42.8343 26.6219C43.1666 27.1319 43.3325 27.7343 43.3089 28.3446V39.4224C43.3201 39.5096 43.3201 39.5978 43.3089 39.685L41.9871 45.0641Z" fill="#8B8785"/>
<path d="M14.1615 33.4838C14.3094 33.4683 14.4589 33.4844 14.6002 33.531C14.7416 33.5776 14.8717 33.6537 14.9821 33.7544C15.0925 33.855 15.1808 33.978 15.2412 34.1153C15.3016 34.2527 15.3329 34.4013 15.3329 34.5516C15.3329 34.7019 15.3016 34.8505 15.2412 34.9879C15.1808 35.1252 15.0925 35.2482 14.9821 35.3488C14.8717 35.4495 14.7416 35.5256 14.6002 35.5722C14.4589 35.6188 14.3094 35.6349 14.1615 35.6194H4.62648L6.3211 37.3325C6.4205 37.4322 6.4995 37.5507 6.55358 37.6813C6.60766 37.8119 6.63576 37.952 6.63628 38.0936C6.63681 38.2352 6.60974 38.3755 6.55663 38.5065C6.50352 38.6375 6.42541 38.7566 6.32675 38.8571C6.22809 38.9576 6.11082 39.0374 5.98163 39.0921C5.85244 39.1468 5.71386 39.1752 5.57381 39.1757C5.43376 39.1762 5.29498 39.1489 5.16539 39.0952C5.0358 39.0415 4.91794 38.9625 4.81854 38.8628L1.31633 35.3225C1.12898 35.1126 1.02527 34.84 1.02527 34.5573C1.02527 34.2746 1.12898 34.002 1.31633 33.7921L4.81854 30.2518C4.91717 30.152 5.03428 30.0728 5.16319 30.0188C5.2921 29.9648 5.43028 29.937 5.56982 29.937C5.70936 29.937 5.84754 29.9648 5.97645 30.0188C6.10536 30.0728 6.22247 30.152 6.3211 30.2518C6.50846 30.4617 6.61217 30.7343 6.61217 31.017C6.61217 31.2997 6.50846 31.5723 6.3211 31.7821L4.62648 33.4952L14.1615 33.4838Z" fill="#8B8785"/>
<path d="M51.8385 35.6191C51.6906 35.6346 51.5411 35.6185 51.3997 35.5719C51.2584 35.5253 51.1283 35.4492 51.0179 35.3485C50.9075 35.2479 50.8192 35.1249 50.7588 34.9876C50.6983 34.8502 50.6671 34.7016 50.6671 34.5513C50.6671 34.401 50.6983 34.2524 50.7588 34.115C50.8192 33.9777 50.9075 33.8547 51.0179 33.7541C51.1283 33.6534 51.2584 33.5773 51.3997 33.5307C51.5411 33.4841 51.6906 33.468 51.8385 33.4835H61.3396L59.6676 31.7704C59.4802 31.5606 59.3765 31.2879 59.3765 31.0053C59.3765 30.7226 59.4802 30.4499 59.6676 30.2401C59.7662 30.1403 59.8833 30.0611 60.0122 30.0071C60.1411 29.9531 60.2793 29.9253 60.4189 29.9253C60.5584 29.9253 60.6966 29.9531 60.8255 30.0071C60.9544 30.0611 61.0715 30.1403 61.1701 30.2401L64.6724 33.7804C64.7742 33.8795 64.8552 33.9983 64.9105 34.1298C64.9658 34.2613 64.9944 34.4027 64.9944 34.5456C64.9944 34.6885 64.9658 34.8299 64.9105 34.9613C64.8552 35.0928 64.7742 35.2117 64.6724 35.3107L61.1701 38.8511C60.9694 39.0525 60.6977 39.1651 60.4149 39.164C60.132 39.1629 59.8612 39.0483 59.6619 38.8454C59.4627 38.6424 59.3513 38.3678 59.3524 38.0819C59.3535 37.7959 59.4668 37.5222 59.6676 37.3207L61.3396 35.6191H51.8385Z" fill="#8B8785"/>
<path d="M32.8701 64.0789C26.5904 64.1763 20.4507 62.2007 15.3822 58.4518C10.3137 54.7028 6.59305 49.385 4.78464 43.3052H2.27661C4.16438 50.0182 8.18021 55.919 13.7072 60.101C19.2341 64.2831 25.9665 66.5152 32.8701 66.4544C39.7736 66.5152 46.506 64.2831 52.033 60.101C57.5599 55.919 61.5758 50.0182 63.4636 43.3052H60.9555C59.1471 49.385 55.4265 54.7028 50.358 58.4518C45.2895 62.2007 39.1497 64.1763 32.8701 64.0789Z" fill="#8B8785"/>
<path d="M32.87 4.93255C38.9917 4.99314 44.9471 6.95369 49.9301 10.5488C54.9131 14.1439 58.683 19.1999 60.7295 25.0325H63.2715C59.2044 12.47 47.1274 2.5 32.87 2.5C18.6127 2.5 6.53571 12.47 2.46863 25.0325H5.01055C7.05708 19.1999 10.827 14.1439 15.81 10.5488C20.793 6.95369 26.7484 4.99314 32.87 4.93255Z" fill="#8B8785"/>
</g>
<defs>
<clipPath id="clip0_4001_1212">
<rect width="64" height="64" fill="white" transform="translate(1 2.5)"/>
</clipPath>
</defs>
</svg>
