<svg width="30" height="30" viewBox="0 0 30 30" fill="none" xmlns="http://www.w3.org/2000/svg">
<path d="M28.614 4.21397C28.9783 3.83676 29.1799 3.33156 29.1753 2.80716C29.1708 2.28277 28.9605 1.78115 28.5896 1.41033C28.2188 1.03951 27.7172 0.829175 27.1928 0.824619C26.6684 0.820062 26.1632 1.02165 25.786 1.38597L15 12.172L4.214 1.38597C4.0295 1.19495 3.80881 1.04258 3.56481 0.937764C3.3208 0.832946 3.05836 0.777774 2.7928 0.775466C2.52724 0.773159 2.26388 0.823761 2.01809 0.924323C1.7723 1.02489 1.54899 1.17339 1.36121 1.36118C1.17342 1.54896 1.02492 1.77227 0.924354 2.01806C0.823792 2.26385 0.773189 2.52721 0.775497 2.79277C0.777804 3.05833 0.832977 3.32077 0.937795 3.56478C1.04261 3.80878 1.19498 4.02947 1.386 4.21397L12.172 15L1.386 25.786C1.19498 25.9705 1.04261 26.1912 0.937795 26.4352C0.832977 26.6792 0.777804 26.9416 0.775497 27.2072C0.773189 27.4727 0.823792 27.7361 0.924354 27.9819C1.02492 28.2277 1.17342 28.451 1.36121 28.6388C1.54899 28.8265 1.7723 28.975 2.01809 29.0756C2.26388 29.1762 2.52724 29.2268 2.7928 29.2245C3.05836 29.2222 3.3208 29.167 3.56481 29.0622C3.80881 28.9574 4.0295 28.805 4.214 28.614L15 17.828L25.786 28.614C26.1632 28.9783 26.6684 29.1799 27.1928 29.1753C27.7172 29.1708 28.2188 28.9604 28.5896 28.5896C28.9605 28.2188 29.1708 27.7172 29.1753 27.1928C29.1799 26.6684 28.9783 26.1632 28.614 25.786L17.828 15L28.614 4.21397Z" fill="#514F4D"/>
</svg>
