<svg width="27" height="26" viewBox="0 0 27 26" fill="none" xmlns="http://www.w3.org/2000/svg">
<path d="M11 26C10.7348 26 10.4804 25.8946 10.2929 25.7071C10.1053 25.5196 9.99999 25.2652 9.99999 25V15.385L0.72999 5.19C0.365077 4.78788 0.124727 4.28848 0.0381123 3.75242C-0.0485028 3.21636 0.0223405 2.66668 0.242044 2.1701C0.461748 1.67351 0.820865 1.25138 1.27581 0.954918C1.73076 0.65846 2.26198 0.500428 2.80499 0.5H24.195C24.738 0.500428 25.2692 0.65846 25.7242 0.954918C26.1791 1.25138 26.5382 1.67351 26.7579 2.1701C26.9776 2.66668 27.0485 3.21636 26.9619 3.75242C26.8753 4.28848 26.6349 4.78788 26.27 5.19L17 15.385V21C16.9999 21.1498 16.9662 21.2977 16.9012 21.4327C16.8363 21.5677 16.7419 21.6864 16.625 21.78L11.625 25.78C11.4477 25.9222 11.2273 25.9998 11 26ZM2.80499 2.5C2.64938 2.50039 2.49722 2.54587 2.36692 2.63094C2.23662 2.71601 2.13377 2.83702 2.07082 2.97933C2.00787 3.12163 1.98751 3.27914 2.01221 3.43277C2.03691 3.58641 2.10561 3.7296 2.20999 3.845L11.74 14.345C11.9033 14.5245 11.9957 14.7574 12 15V22.92L15 20.5V15C14.9994 14.7504 15.0921 14.5097 15.26 14.325L24.79 3.825C24.8882 3.70908 24.9515 3.56775 24.9728 3.41734C24.994 3.26693 24.9723 3.11357 24.91 2.975C24.8478 2.83643 24.7476 2.71829 24.6211 2.63424C24.4946 2.55018 24.3468 2.50364 24.195 2.5H2.80499Z" fill="#514F4D"/>
</svg>
