<svg width="28" height="26" viewBox="0 0 28 26" fill="none" xmlns="http://www.w3.org/2000/svg">
<path d="M11.5 26C11.2348 26 10.9804 25.8946 10.7929 25.7071C10.6053 25.5196 10.5 25.2652 10.5 25V15.385L1.22999 5.19C0.865077 4.78788 0.624727 4.28848 0.538112 3.75242C0.451497 3.21636 0.522341 2.66668 0.742044 2.1701C0.961748 1.67351 1.32087 1.25138 1.77581 0.954918C2.23076 0.65846 2.76198 0.500428 3.30499 0.5H24.695C25.238 0.500428 25.7692 0.65846 26.2242 0.954918C26.6791 1.25138 27.0382 1.67351 27.2579 2.1701C27.4776 2.66668 27.5485 3.21636 27.4619 3.75242C27.3753 4.28848 27.1349 4.78788 26.77 5.19L17.5 15.385V21C17.4999 21.1498 17.4662 21.2977 17.4012 21.4327C17.3363 21.5677 17.2419 21.6864 17.125 21.78L12.125 25.78C11.9477 25.9222 11.7273 25.9998 11.5 26ZM3.30499 2.5C3.14938 2.50039 2.99722 2.54587 2.86692 2.63094C2.73662 2.71601 2.63377 2.83702 2.57082 2.97933C2.50787 3.12163 2.48751 3.27914 2.51221 3.43277C2.53691 3.58641 2.60561 3.7296 2.70999 3.845L12.24 14.345C12.4033 14.5245 12.4957 14.7574 12.5 15V22.92L15.5 20.5V15C15.4994 14.7504 15.5921 14.5097 15.76 14.325L25.29 3.825C25.3882 3.70908 25.4515 3.56775 25.4728 3.41734C25.494 3.26693 25.4723 3.11357 25.41 2.975C25.3478 2.83643 25.2476 2.71829 25.1211 2.63424C24.9946 2.55018 24.8468 2.50364 24.695 2.5H3.30499Z" fill="white"/>
<path d="M3.30499 2.5C3.14938 2.50039 2.99722 2.54587 2.86692 2.63094C2.73662 2.71601 2.63377 2.83702 2.57082 2.97933C2.50787 3.12163 2.48751 3.27914 2.51221 3.43277C2.53691 3.58641 2.60561 3.7296 2.70999 3.845L12.24 14.345C12.4033 14.5245 12.4957 14.7574 12.5 15V22.92L15.5 20.5V15C15.4994 14.7504 15.5921 14.5097 15.76 14.325L25.29 3.825C25.3882 3.70908 25.4515 3.56775 25.4728 3.41734C25.494 3.26693 25.4723 3.11357 25.41 2.975C25.3478 2.83643 25.2476 2.71829 25.1211 2.63424C24.9946 2.55018 24.8468 2.50364 24.695 2.5H3.30499Z" fill="white"/>
</svg>
