<svg width="16" height="27" viewBox="0 0 16 27" fill="none" xmlns="http://www.w3.org/2000/svg">
<path fill-rule="evenodd" clip-rule="evenodd" d="M14.1427 0.166505C14.3166 0.166259 14.4889 0.200338 14.6496 0.266788C14.8104 0.333238 14.9564 0.430754 15.0794 0.553748C15.2024 0.676742 15.2999 0.822796 15.3664 0.983542C15.4328 1.14429 15.4669 1.31657 15.4667 1.49051V8.18811C15.4664 8.42492 15.4035 8.65746 15.2845 8.86219C15.1655 9.06692 14.9945 9.23657 14.7888 9.35397L12.2341 10.8137C10.9296 10.1238 9.47576 9.76423 8 9.76651C6.52789 9.76431 5.07758 10.1222 3.77547 10.8089L1.2288 9.34757C1.02681 9.23155 0.859055 9.06423 0.742504 8.86255C0.625952 8.66087 0.564742 8.43198 0.565067 8.19904V1.50917C0.56556 1.15323 0.707179 0.812001 0.95887 0.560309C1.21056 0.308617 1.55179 0.166999 1.90773 0.166505H14.1427ZM3.2 3.09984C3.2 2.95839 3.25619 2.82273 3.35621 2.72272C3.45623 2.6227 3.59188 2.56651 3.73333 2.56651H12.2667C12.4081 2.56651 12.5438 2.6227 12.6438 2.72272C12.7438 2.82273 12.8 2.95839 12.8 3.09984C12.8 3.24129 12.7438 3.37694 12.6438 3.47696C12.5438 3.57698 12.4081 3.63317 12.2667 3.63317H3.73333C3.59188 3.63317 3.45623 3.57698 3.35621 3.47696C3.25619 3.37694 3.2 3.24129 3.2 3.09984ZM16 18.8332C16 23.2516 12.4184 26.8332 8 26.8332C3.5816 26.8332 0 23.2516 0 18.8332C0 14.4148 3.5816 10.8332 8 10.8332C12.4184 10.8332 16 14.4148 16 18.8332ZM7.4928 14.2609C7.65253 13.7697 8.34747 13.7697 8.5072 14.2609L9.25733 16.5694C9.29213 16.6766 9.35995 16.7699 9.45106 16.8361C9.54218 16.9023 9.65191 16.938 9.76453 16.938H12.1917C12.7083 16.938 12.9232 17.599 12.5053 17.9028L10.5416 19.3294C10.4505 19.3956 10.3826 19.489 10.3478 19.5961C10.313 19.7032 10.3129 19.8186 10.3477 19.9257L11.0979 22.234C11.2576 22.7254 10.6952 23.134 10.2771 22.8302L8.3136 21.4036C8.22246 21.3373 8.11268 21.3016 8 21.3016C7.88732 21.3016 7.77754 21.3373 7.6864 21.4036L5.72293 22.8302C5.3048 23.1342 4.7424 22.7254 4.90213 22.234L5.65227 19.9257C5.68705 19.8186 5.68703 19.7032 5.65221 19.5961C5.61738 19.489 5.54954 19.3956 5.4584 19.3294L3.49493 17.9028C3.0768 17.5988 3.29173 16.938 3.80827 16.938H6.23547C6.34809 16.938 6.45782 16.9023 6.54894 16.8361C6.64005 16.7699 6.70787 16.6766 6.74267 16.5694L7.4928 14.2609Z" fill="white"/>
</svg>
